<svg width="51" height="47" viewBox="0 0 51 47" fill="none" xmlns="http://www.w3.org/2000/svg">
<path d="M50.8666 17.7586C50.5308 16.7655 49.6148 16.0624 48.5354 15.9685L33.8133 14.6832L27.995 1.58357C27.5654 0.621154 26.588 0 25.5 0C24.4121 0 23.4343 0.621154 23.0074 1.58357L17.1891 14.6832L2.46462 15.9685C1.38524 16.0643 0.471237 16.7674 0.133494 17.7586C-0.202304 18.7517 0.107813 19.841 0.924155 20.5295L12.0529 29.9138L8.77163 43.8119C8.53155 44.8338 8.944 45.8905 9.82571 46.5035C10.2996 46.8346 10.8565 47 11.4152 47C11.8954 47 12.3759 46.8773 12.8051 46.6303L25.5 39.3306L38.1926 46.6303C39.1238 47.1654 40.2946 47.1164 41.1744 46.5035C42.0561 45.8905 42.4685 44.8338 42.2284 43.8119L38.9471 29.9138L50.0759 20.5295C50.8919 19.841 51.2024 18.754 50.8666 17.7586Z" fill="#F8B200"/>
</svg>
