<svg width="116" height="107" viewBox="0 0 116 107" fill="none" xmlns="http://www.w3.org/2000/svg">
<path d="M58 0.5C60.2134 0.5 62.1966 1.72469 63.1309 3.62305L63.2178 3.80859L76.4512 33.6309L76.5713 33.9004L76.8652 33.9258L110.351 36.8516C112.546 37.0427 114.406 38.4335 115.154 40.3975L115.223 40.5889C115.898 42.5913 115.317 44.7759 113.732 46.2178L113.575 46.3555L88.2627 67.7197L88.0283 67.918L88.0986 68.2168L95.5625 99.8564C96.0449 101.912 95.2589 104.04 93.5352 105.336L93.3662 105.459H93.3652C91.5812 106.703 89.222 106.839 87.3027 105.826L87.1191 105.725L58.25 89.1064L58 88.9629L57.751 89.1064L28.876 105.725C27.9778 106.242 26.9709 106.5 25.9639 106.5C24.8649 106.5 23.7718 106.195 22.8232 105.586L22.6348 105.46L22.6338 105.459L22.4648 105.336C20.7968 104.082 20.0075 102.048 20.3955 100.056L20.4375 99.8564L27.9014 68.2168L27.9717 67.918L27.7373 67.7197L2.4248 46.3555C0.72174 44.9178 0.080218 42.6517 0.776367 40.5898L0.777344 40.5908C1.47921 38.529 3.38437 37.0528 5.65039 36.8516L5.64941 36.8506L39.1406 33.9258L39.4346 33.9004L39.5537 33.6309L52.7881 3.80762C53.6755 1.80511 55.715 0.500026 58 0.5Z" stroke="#F8B200"/>
</svg>
