<svg width="26" height="28" viewBox="0 0 26 28" fill="none" xmlns="http://www.w3.org/2000/svg">
<path d="M21.3273 20.8661L20.7509 22.3648C20.6356 22.5954 20.5203 22.8259 20.405 22.9412C20.405 23.0565 17.5229 25.1316 17.6382 25.1316C17.1771 25.4774 16.6007 25.5927 16.0243 25.3622C15.5631 25.1316 15.2173 24.7858 15.102 24.3246H3.68904C3.34319 24.3246 3.11263 24.0941 3.11263 23.7482C3.11263 23.4024 3.34319 23.1718 3.68904 23.1718H14.8715L14.5256 20.7509C14.5256 20.6356 14.5256 20.6356 14.5256 20.5203C14.5256 20.405 14.5256 20.405 14.5256 20.2897H3.68904C3.34319 20.2897 3.11263 20.0592 3.11263 19.7133C3.11263 19.3675 3.34319 19.1369 3.68904 19.1369H14.9867L16.1396 16.2548H3.68904C3.34319 16.2548 3.11263 16.0243 3.11263 15.6784C3.11263 15.3326 3.34319 15.102 3.68904 15.102H16.6007L17.7535 12.22C17.7535 12.22 17.7535 12.22 17.6382 12.22H3.68904C3.34319 12.22 3.11263 11.9894 3.11263 11.6435C3.11263 11.2977 3.34319 11.0671 3.68904 11.0671H17.7535C17.9841 11.0671 18.0994 11.1824 18.2146 11.2977L20.1744 6.57111L20.8661 4.95715C20.9814 4.6113 21.212 4.26545 21.4426 4.03489V1.72924C21.4426 0.806978 20.6356 0 19.7133 0H1.72924C0.806978 0 0 0.806978 0 1.72924V25.9386C0 26.8608 0.806978 27.6678 1.72924 27.6678H19.598C20.5203 27.6678 21.3273 26.8608 21.3273 25.9386V25.4774V25.3622V20.8661ZM6.91695 3.34319H14.5256C14.8714 3.34319 15.102 3.57376 15.102 3.91961C15.102 4.26545 14.8714 4.49602 14.5256 4.49602H6.91695C6.57111 4.49602 6.34054 4.26545 6.34054 3.91961C6.34054 3.57376 6.57111 3.34319 6.91695 3.34319ZM3.68904 7.2628H17.7535C18.0994 7.2628 18.3299 7.49337 18.3299 7.83921C18.3299 8.18506 18.0994 8.41563 17.7535 8.41563H3.68904C3.34319 8.41563 3.11263 8.18506 3.11263 7.83921C3.11263 7.60865 3.34319 7.2628 3.68904 7.2628Z" fill="#263959"/>
<path d="M20.9818 8.99203C20.7513 8.87674 20.636 8.76146 20.5207 8.64618L15.6788 20.405C15.5635 20.6356 15.6788 20.9814 15.9094 21.0967L18.9067 22.3648C19.1373 22.4801 19.1373 22.3648 19.3679 22.3648C19.4832 22.3648 19.5984 22.2495 19.7137 22.019L24.5556 10.3754C24.325 10.3754 24.2097 10.3754 23.9792 10.2601L20.9818 8.99203Z" fill="#263959"/>
<path d="M24.6708 4.49604C24.0944 4.26548 23.518 4.26548 23.0569 4.49604C22.4805 4.72661 22.1346 5.18774 21.904 5.64887L21.0971 7.26283C20.9818 7.49339 21.0971 7.83924 21.4429 7.95452L24.4403 9.22263C24.6708 9.33791 25.0167 9.22263 25.132 8.87678L25.8236 7.26283C26.2848 6.22528 25.8236 4.95717 24.6708 4.49604Z" fill="#263959"/>
<path d="M16.3702 24.3245C16.4855 24.3245 16.4855 24.3245 16.6007 24.3245C16.716 24.3245 16.8313 24.3245 16.9466 24.2093L18.2147 23.287L15.7938 22.2495L16.0243 23.8634C16.0243 24.094 16.1396 24.2093 16.3702 24.3245Z" fill="#263959"/>
</svg>
