<svg width="28" height="29" viewBox="0 0 28 29" fill="none" xmlns="http://www.w3.org/2000/svg">
<path d="M5.8023 14.8279H0C0.197274 18.2649 1.62898 21.4687 4.0832 23.9229C6.56115 26.4009 9.80316 27.8371 13.2779 28.0122V22.2127C9.34337 21.8693 6.19241 18.749 5.8023 14.8279Z" fill="#263959"/>
<path d="M14.9211 22.1929V28C18.3204 27.781 21.486 26.3534 23.9165 23.9229C26.3708 21.4687 27.8024 18.2649 27.9997 14.8279H22.1974C21.8139 18.6826 18.7624 21.7634 14.9211 22.1929Z" fill="#263959"/>
<path d="M13.2779 5.79956V0C9.80311 0.175032 6.56115 1.61128 4.08315 4.08928C1.62898 6.54351 0.197274 9.74728 0 13.1843H5.80235C6.19241 9.26317 9.34337 6.14283 13.2779 5.79956Z" fill="#263959"/>
<path d="M22.1974 13.1842H27.9997C27.8025 9.7472 26.3708 6.54338 23.9165 4.0892C21.486 1.65864 18.3204 0.231047 14.9211 0.0120239V5.8192C18.7623 6.2487 21.8139 9.32948 22.1974 13.1842Z" fill="#263959"/>
<path d="M12.4115 13.1843V14.2759C12.4115 14.5226 12.3706 14.7025 12.2961 14.8278C12.1974 14.9937 12.0396 15.0637 11.8381 15.0637C11.6365 15.0637 11.4787 14.9937 11.38 14.8278C11.3055 14.7025 11.2646 14.5226 11.2646 14.2759V13.1843V12.25H9.99976V13.1842V14.3133C9.99976 14.498 10.0183 14.6695 10.0538 14.8277C10.2346 15.6338 10.8641 16.0873 11.8273 16.0873C12.4717 16.0873 12.9667 15.8844 13.278 15.5088C13.5235 15.2127 13.6548 14.8094 13.6548 14.3133V12.25H13.278H12.4115V13.1843Z" fill="#263959"/>
<path d="M16.8274 12.25L16.2116 13.1843L16.2057 13.1933L16.1997 13.1843L15.5679 12.25H14.9212H14.1477L15.4554 14.1097L14.9408 14.8278L14.9212 14.855L14.0995 16.0015H14.9212H15.5412L16.1736 14.9993L16.822 16.0015H18.2691L17.4325 14.8278L16.8864 14.0615L17.517 13.1843L18.1887 12.25H16.8274Z" fill="#263959"/>
</svg>
