<svg width="28" height="28" viewBox="0 0 28 28" fill="none" xmlns="http://www.w3.org/2000/svg">
<path d="M10.6205 3.66217H9.65503V4.62769H10.6205V3.66217Z" fill="#263959"/>
<path d="M8.68976 3.66217H7.72424V4.62769H8.68976V3.66217Z" fill="#263959"/>
<path d="M6.75861 3.66217H5.79309V4.62769H6.75861V3.66217Z" fill="#263959"/>
<path d="M12.5517 3.66217H11.5862V4.62769H12.5517V3.66217Z" fill="#263959"/>
<path d="M18.3448 3.66217H17.3793V4.62769H18.3448V3.66217Z" fill="#263959"/>
<path d="M14.4829 3.66217H13.5173V4.62769H14.4829V3.66217Z" fill="#263959"/>
<path d="M17.0106 10.7897L18.5414 10.024L27.8003 0.765655L27.0346 0L17.7763 9.25883L17.0106 10.7897Z" fill="#263959"/>
<path d="M16.4135 3.66217H15.448V4.62769H16.4135V3.66217Z" fill="#263959"/>
<path d="M4.82746 3.66217H3.86194V4.62769H4.82746V3.66217Z" fill="#263959"/>
<path d="M16.8964 22.9727H11.1033V25.8692H16.8964V22.9727Z" fill="#263959"/>
<path d="M2.41391 14.283H19.7932C19.9213 14.283 20.044 14.2321 20.1346 14.1416C20.2251 14.051 20.276 13.9282 20.276 13.8002V9.65523L19.169 10.7622C19.1323 10.799 19.0899 10.8297 19.0435 10.853L16.1469 12.3012C16.0562 12.3475 15.9532 12.364 15.8526 12.3482C15.7519 12.3324 15.6589 12.2851 15.5867 12.2132C15.5146 12.1414 15.467 12.0485 15.4508 11.9479C15.4347 11.8474 15.4507 11.7443 15.4967 11.6534L16.9449 8.75682C16.9682 8.71037 16.9989 8.66798 17.0357 8.6313L20.276 5.39344V2.21399C20.276 2.08595 20.2251 1.96316 20.1346 1.87263C20.044 1.78209 19.9213 1.73123 19.7932 1.73123H2.41391C2.28588 1.73123 2.16308 1.78209 2.07255 1.87263C1.98201 1.96316 1.93115 2.08595 1.93115 2.21399V13.8002C1.93115 13.9282 1.98201 14.051 2.07255 14.1416C2.16308 14.2321 2.28588 14.283 2.41391 14.283ZM18.3449 12.3519H19.3105V13.3174H18.3449V12.3519ZM16.4139 12.3519H17.3794V13.3174H16.4139V12.3519ZM5.79322 13.3174H4.8277V12.3519H5.79322V13.3174ZM5.79322 11.3864H4.8277V10.4209H5.79322V11.3864ZM5.79322 9.45537H4.8277V8.48985H5.79322V9.45537ZM5.79322 7.52433H4.8277V6.55882H5.79322V7.52433ZM7.72426 13.3174H6.75874V12.3519H7.72426V13.3174ZM7.72426 11.3864H6.75874V10.4209H7.72426V11.3864ZM7.72426 9.45537H6.75874V8.48985H7.72426V9.45537ZM7.72426 7.52433H6.75874V6.55882H7.72426V7.52433ZM9.65529 13.3174H8.68977V12.3519H9.65529V13.3174ZM9.65529 11.3864H8.68977V10.4209H9.65529V11.3864ZM9.65529 9.45537H8.68977V8.48985H9.65529V9.45537ZM9.65529 7.52433H8.68977V6.55882H9.65529V7.52433ZM11.5863 13.3174H10.6208V12.3519H11.5863V13.3174ZM11.5863 11.3864H10.6208V10.4209H11.5863V11.3864ZM11.5863 9.45537H10.6208V8.48985H11.5863V9.45537ZM11.5863 7.52433H10.6208V6.55882H11.5863V7.52433ZM13.5174 13.3174H12.5518V12.3519H13.5174V13.3174ZM13.5174 11.3864H12.5518V10.4209H13.5174V11.3864ZM13.5174 9.45537H12.5518V8.48985H13.5174V9.45537ZM13.5174 7.52433H12.5518V6.55882H13.5174V7.52433ZM15.4484 13.3174H14.4829V12.3519H15.4484V13.3174ZM15.4484 11.3864H14.4829V10.4209H15.4484V11.3864ZM15.4484 9.45537H14.4829V8.48985H15.4484V9.45537ZM15.4484 7.52433H14.4829V6.55882H15.4484V7.52433ZM17.3794 7.52433H16.4139V6.55882H17.3794V7.52433ZM2.89667 3.17951C2.89667 3.05147 2.94753 2.92868 3.03807 2.83815C3.1286 2.74761 3.25139 2.69675 3.37943 2.69675H18.8277C18.9557 2.69675 19.0785 2.74761 19.1691 2.83815C19.2596 2.92868 19.3105 3.05147 19.3105 3.17951V5.11054C19.3105 5.23858 19.2596 5.36137 19.1691 5.4519C19.0785 5.54244 18.9557 5.5933 18.8277 5.5933H3.37943C3.25139 5.5933 3.1286 5.54244 3.03807 5.4519C2.94753 5.36137 2.89667 5.23858 2.89667 5.11054V3.17951ZM2.89667 6.55882H3.86219V7.52433H2.89667V6.55882ZM2.89667 8.48985H3.86219V9.45537H2.89667V8.48985ZM2.89667 10.4209H3.86219V11.3864H2.89667V10.4209ZM2.89667 12.3519H3.86219V13.3174H2.89667V12.3519Z" fill="#263959"/>
<path d="M18.345 26.8345H9.65537C9.52733 26.8345 9.40454 26.8854 9.314 26.9759C9.22347 27.0665 9.17261 27.1893 9.17261 27.3173V27.8001H18.8278V27.3173C18.8278 27.1893 18.7769 27.0665 18.6864 26.9759C18.5958 26.8854 18.4731 26.8345 18.345 26.8345Z" fill="#263959"/>
<path d="M0 20.5588C0 20.9429 0.152586 21.3113 0.42419 21.5829C0.695795 21.8545 1.06417 22.0071 1.44828 22.0071H26.5517C26.9358 22.0071 27.3042 21.8545 27.5758 21.5829C27.8474 21.3113 28 20.9429 28 20.5588V19.1105H0V20.5588ZM25.5862 20.076H26.5517V21.0415H25.5862V20.076ZM23.6552 20.076H24.6207V21.0415H23.6552V20.076ZM21.7241 20.076H22.6897V21.0415H21.7241V20.076Z" fill="#263959"/>
<path d="M26.5517 4.62778H25.3033L21.2414 8.68971V13.8002C21.2414 14.1843 21.0888 14.5527 20.8172 14.8243C20.5456 15.0959 20.1772 15.2485 19.7931 15.2485H2.41379C2.02969 15.2485 1.66131 15.0959 1.38971 14.8243C1.1181 14.5527 0.965517 14.1843 0.965517 13.8002V4.7166C0.684113 4.81609 0.44032 5.0001 0.267491 5.24344C0.0946612 5.48678 0.00123729 5.77758 0 6.07605V18.145H28V6.07605C28 5.69195 27.8474 5.32357 27.5758 5.05197C27.3042 4.78036 26.9358 4.62778 26.5517 4.62778Z" fill="#263959"/>
</svg>
