<svg width="28" height="28" viewBox="0 0 28 28" fill="none" xmlns="http://www.w3.org/2000/svg">
<path d="M27.1797 0H23.8438C23.3903 0 23.0234 0.366898 23.0234 0.820312V1.64062H16.3098C15.9701 0.687859 15.068 0 14 0C12.932 0 12.0299 0.687859 11.6902 1.64062H4.97656V0.820312C4.97656 0.366898 4.60966 0 4.15625 0H0.820312C0.366898 0 0 0.366898 0 0.820312V4.10156C0 4.55498 0.366898 4.92188 0.820312 4.92188H4.15625C4.60966 4.92188 4.97656 4.55498 4.97656 4.10156V3.27031H8.34553C5.49866 5.0488 3.62152 8.1725 3.39713 11.6711C2.41287 11.9933 1.69531 12.9095 1.69531 14C1.69531 15.357 2.79923 16.4609 4.15625 16.4609C5.51327 16.4609 6.61719 15.357 6.61719 14C6.61719 12.9533 5.9576 12.0634 5.03453 11.7082C5.31442 7.80763 8.03611 4.52003 11.822 3.58203C12.2314 4.37374 13.0488 4.92188 14 4.92188C14.9512 4.92188 15.7686 4.37374 16.178 3.58203C19.9639 4.51998 22.6856 7.80757 22.9655 11.7082C22.0424 12.0634 21.3828 12.9533 21.3828 14C21.3828 15.357 22.4867 16.4609 23.8438 16.4609C25.2008 16.4609 26.3047 15.357 26.3047 14C26.3047 12.9095 25.5871 11.9933 24.6029 11.6711C24.3785 8.1725 22.5013 5.05974 19.6545 3.28125H23.0234V4.10156C23.0234 4.55498 23.3903 4.92188 23.8438 4.92188H27.1797C27.6331 4.92188 28 4.55498 28 4.10156V0.820312C28 0.366898 27.6331 0 27.1797 0Z" fill="#263959"/>
<path d="M19.5809 26.9825C19.1518 25.6695 17.9157 24.6641 16.461 24.6641H11.5391C10.0844 24.6641 8.84826 25.6695 8.41918 26.9825C8.25375 27.4888 8.68442 28 9.21707 28H18.783C19.3156 28 19.7463 27.4888 19.5809 26.9825Z" fill="#263959"/>
<path d="M21.245 16.8263L14.8203 7.18921V14.9715C15.7731 15.3112 16.4609 16.2132 16.4609 17.2813C16.4609 18.6383 15.357 19.7422 14 19.7422C12.643 19.7422 11.5391 18.6383 11.5391 17.2813C11.5391 16.2132 12.2269 15.3112 13.1797 14.9715V7.18921L6.75501 16.8263C6.5379 17.1515 6.58116 17.5849 6.85755 17.8613C8.36348 19.3672 9.32609 21.3073 9.69758 23.3883C10.2674 23.1571 10.8872 23.0235 11.5391 23.0235H16.4609C17.1128 23.0235 17.7326 23.1571 18.3024 23.3882C18.6739 21.3071 19.6365 19.3672 21.1425 17.8613C21.4189 17.5849 21.4621 17.1515 21.245 16.8263Z" fill="#263959"/>
<path d="M14 16.4609C13.5474 16.4609 13.1797 16.8287 13.1797 17.2812C13.1797 17.7338 13.5474 18.1016 14 18.1016C14.4526 18.1016 14.8203 17.7338 14.8203 17.2812C14.8203 16.8287 14.4526 16.4609 14 16.4609Z" fill="#263959"/>
</svg>
