<svg width="28" height="28" viewBox="0 0 28 28" fill="none" xmlns="http://www.w3.org/2000/svg">
<path d="M14 0C6.28772 0 0 6.28772 0 14C0 21.7123 6.28772 28 14 28C21.7123 28 28 21.7123 28 14C28 6.28772 21.7123 0 14 0ZM20.7789 12.8947H17.8316C17.807 11.5684 17.6105 10.3158 17.2912 9.25965C17.9298 8.94035 18.4702 8.57193 18.8386 8.27719C19.993 9.4807 20.7053 11.1018 20.7789 12.8947ZM18.2982 13.4842C18.1263 13.5088 17.9789 13.5088 17.8316 13.5333C17.8316 13.4842 17.8316 13.4351 17.8316 13.386H20.7544C20.7544 13.5088 20.7544 13.6316 20.7298 13.7544C20.3123 13.607 19.7474 13.5333 19.0105 13.5088V13.4842H18.2982ZM18.5193 7.93333C18.1754 8.20351 17.7088 8.52281 17.1439 8.79298C16.7754 7.7614 16.2842 6.90175 15.6947 6.31228C16.7754 6.63158 17.7333 7.19649 18.5193 7.93333ZM13.9018 6.01754C14.1474 6.01754 14.393 6.04211 14.6386 6.09123C15.4982 6.55789 16.2105 7.61404 16.7018 9.01404C15.9158 9.35789 14.9825 9.60351 13.8772 9.62807V6.01754H13.9018ZM13.9018 10.0947C15.0316 10.0702 16.0386 9.8 16.8737 9.45614C17.1684 10.4632 17.3649 11.6421 17.3895 12.8947H13.9018V10.0947ZM11.593 6.31228C11.0035 6.90175 10.5123 7.7614 10.1684 8.76842C9.60351 8.47368 9.1614 8.17895 8.81754 7.90877C9.60351 7.17193 10.5614 6.63158 11.593 6.31228ZM8.47368 8.25263C8.8421 8.54737 9.35789 8.91579 10.0211 9.23509C9.70175 10.3158 9.50526 11.5439 9.4807 12.8947H6.53333C6.60702 11.1018 7.3193 9.45614 8.47368 8.25263ZM6.53333 13.3614H9.45614C9.4807 14.7368 9.67719 16.014 10.0211 17.0947C9.40702 17.414 8.89123 17.7579 8.52281 18.0526C7.34386 16.8491 6.60702 15.2035 6.53333 13.3614ZM8.86667 18.3965C9.21053 18.1263 9.62807 17.8316 10.1684 17.5614C10.5123 18.5193 10.9789 19.3298 11.5193 19.9193C10.5368 19.6246 9.62807 19.0842 8.86667 18.3965ZM13.4105 20.2386C13.1158 20.2386 12.8211 20.1895 12.5263 20.1649C11.7404 19.6737 11.0772 18.6667 10.6105 17.3649C11.3719 17.0211 12.3298 16.7754 13.4105 16.7263V20.2386ZM13.4105 16.2596C12.2561 16.3088 11.2737 16.5544 10.4632 16.9228C10.1439 15.8912 9.97193 14.6632 9.94737 13.386H13.4105V16.2596ZM13.4105 12.8947H9.94737C9.97193 11.6421 10.1439 10.4632 10.4632 9.43158C11.2737 9.77544 12.2807 10.0456 13.4105 10.0947V12.8947ZM13.4105 9.62807C12.3053 9.57895 11.3719 9.33333 10.6105 8.98947C11.1018 7.58947 11.8386 6.55789 12.6737 6.09123C12.9193 6.06667 13.1649 6.04211 13.4105 6.01754V9.62807ZM15.6456 17.2421V18.1018V18.6421V19.3789C15.3754 19.6982 15.1053 19.9684 14.786 20.1649C14.4912 20.214 14.1965 20.2386 13.9018 20.2386V16.7263C14.5404 16.7509 15.1053 16.8491 15.6456 16.9719V17.2421ZM15.6456 14.5403C15.5965 14.6877 15.5719 14.8596 15.5719 15.0316C15.5719 15.2035 15.5965 15.3754 15.6456 15.5228V15.7684V16.4807C15.1053 16.3579 14.5404 16.2596 13.9018 16.2351V13.3614H17.3649C17.3649 13.4351 17.3649 13.5088 17.3649 13.5579C16.4316 13.6807 15.9158 13.9509 15.6947 14.4175L15.6456 14.5403ZM21.393 20.6807C21.393 20.7789 21.3684 20.8526 21.3684 20.8772C21.3684 21.6877 20.214 21.9579 18.6667 21.9579C17.1684 21.9579 16.0386 21.7123 15.9649 20.9509V20.1404C16.2596 20.8035 17.3404 21.0491 18.6912 21.0491C19.9684 21.0491 21.0737 20.8281 21.4175 20.214V20.6807H21.393ZM21.393 19.2807C21.393 19.3789 21.3684 19.4526 21.3684 19.4772C21.3684 20.2877 20.214 20.5579 18.6667 20.5579C17.1684 20.5579 16.0386 20.3123 15.9649 19.5509V18.7404C16.2596 19.4035 17.3404 19.6491 18.6912 19.6491C19.9684 19.6491 21.0737 19.4281 21.4175 18.814V19.2807H21.393ZM21.393 17.8316C21.393 17.9298 21.3684 18.0035 21.3684 18.0281C21.3684 18.8386 20.214 19.1088 18.6667 19.1088C17.1684 19.1088 16.0386 18.8632 15.9649 18.1018V17.2912C16.2596 17.9544 17.3404 18.2 18.6912 18.2C19.9684 18.2 21.0737 17.9789 21.4175 17.3649V17.8316H21.393ZM21.393 16.3579C21.393 16.4561 21.3684 16.5298 21.3684 16.5544C21.3684 17.3649 20.214 17.6351 18.6667 17.6351C17.1684 17.6351 16.0386 17.3895 15.9649 16.6281V15.8175C16.2596 16.4807 17.3404 16.7263 18.6912 16.7263C19.9684 16.7263 21.0737 16.5053 21.4175 15.8912V16.3579H21.393ZM18.7158 16.2842C18.6912 16.2842 18.6912 16.2842 18.6667 16.2842C18.6421 16.2842 18.6421 16.2842 18.6175 16.2842C16.1123 16.2351 15.8667 15.6947 15.8667 15.0316C15.8667 14.3684 16.1123 13.8526 18.6175 13.7789C18.6421 13.7789 18.6421 13.7789 18.6667 13.7789C18.6912 13.7789 18.6912 13.7789 18.7158 13.7789C21.2211 13.8281 21.4667 14.3684 21.4667 15.0316C21.4667 15.6947 21.1965 16.2351 18.7158 16.2842Z" fill="#0C1523"/>
</svg>
