<svg width="28" height="25" viewBox="0 0 28 25" fill="none" xmlns="http://www.w3.org/2000/svg">
<path d="M28 12.5006C28 10.8262 26.9296 9.44464 25.5624 9.27798V0.298215C25.5624 0.295238 25.5608 0.292262 25.5608 0.288691C25.5602 0.265477 25.5535 0.244048 25.5486 0.222024C25.5441 0.206548 25.543 0.189881 25.5369 0.175595C25.5302 0.158929 25.5186 0.145238 25.5086 0.129762C25.4975 0.113095 25.4881 0.0952381 25.4736 0.0815477C25.4709 0.0791667 25.4703 0.0755953 25.4675 0.0732144C25.4564 0.0630953 25.4431 0.0595241 25.432 0.0511907C25.4159 0.0398812 25.4004 0.0285719 25.3821 0.0208338C25.3627 0.0130957 25.3427 0.0107146 25.3222 0.00773839C25.31 0.00595267 25.2983 0 25.2855 0C25.2822 0 25.28 0.00178587 25.2767 0.00178587C25.255 0.00238111 25.2345 0.00952382 25.2129 0.0154762C25.1995 0.0196429 25.1846 0.0208336 25.1718 0.0273812C25.1568 0.0351193 25.1435 0.0476194 25.1291 0.0583336C25.1135 0.0702384 25.0969 0.0809525 25.0841 0.0958335C25.0819 0.0982144 25.0786 0.0994051 25.0764 0.101786C24.466 0.852381 23.7874 1.60595 23 2.33155V22.669C23.7874 23.394 24.466 24.1476 25.0764 24.8982C25.0786 24.9012 25.0819 24.9018 25.0841 24.9042C25.103 24.9262 25.1268 24.9429 25.1518 24.9583C25.1601 24.9631 25.1668 24.9708 25.1757 24.975C25.2095 24.9905 25.2467 25 25.2855 25C25.3205 25 25.3543 24.9917 25.3876 24.978C25.4004 24.9726 25.4109 24.9631 25.4226 24.956C25.4376 24.9458 25.4548 24.9399 25.4681 24.9268C25.4709 24.9244 25.4714 24.9208 25.4742 24.9185C25.4881 24.9042 25.4981 24.8863 25.5092 24.8696C25.5191 24.8548 25.5308 24.8411 25.5375 24.8244C25.5441 24.8101 25.5452 24.794 25.5491 24.7786C25.5547 24.7565 25.5608 24.7351 25.5613 24.7119C25.5613 24.7083 25.563 24.706 25.563 24.7024V15.7226C26.9296 15.5565 28 14.175 28 12.5006Z" fill="#263959"/>
<path d="M0 12.5003C0 15.4299 1.7725 17.8272 4 18V7C1.77301 7.1728 0 9.57009 0 12.5003Z" fill="#263959"/>
<path d="M5 17.5236C5.3502 17.5253 5.68389 17.536 6.0223 17.5436L6.87304 24.7396C6.87481 24.7555 6.88247 24.7691 6.88719 24.7845C6.89131 24.7998 6.89485 24.8164 6.90134 24.8305C6.91077 24.8506 6.92374 24.8671 6.9373 24.8837C6.94673 24.8961 6.95381 24.9085 6.96501 24.9191C6.98211 24.935 7.00215 24.9463 7.02278 24.9575C7.03458 24.9646 7.04401 24.9728 7.05639 24.9782C7.09058 24.9917 7.12773 25 7.16605 25H10.1139C10.1245 25 10.1351 24.9994 10.1457 24.9982C10.1604 24.9965 10.1722 24.9888 10.1864 24.9858C10.2058 24.9805 10.2247 24.9764 10.2424 24.9681C10.2595 24.9593 10.2742 24.948 10.289 24.9362C10.3037 24.925 10.319 24.915 10.3314 24.9002C10.3438 24.8866 10.3532 24.8701 10.3627 24.8536C10.3727 24.8376 10.3821 24.8223 10.3886 24.8045C10.3957 24.7862 10.3974 24.7667 10.4004 24.7467C10.4022 24.7325 10.4086 24.7195 10.4086 24.7047C10.4086 24.6988 10.4057 24.6941 10.4057 24.6894C10.4057 24.6835 10.4075 24.6788 10.4069 24.6734L9.65871 17.7639C15.6569 18.3828 19.3812 20.1336 22 22.2004V3C18.7615 5.55631 13.8346 7.63018 5.00059 7.67565V17.5236H5Z" fill="#263959"/>
</svg>
